<?xml version="1.0" encoding="UTF-8" standalone="no"?><!-- Generator: Gravit.io --><svg xmlns="http://www.w3.org/2000/svg" xmlns:xlink="http://www.w3.org/1999/xlink" style="isolation:isolate" viewBox="654.874 411.693 40.002 32.614" width="40.002pt" height="32.614pt"><defs><clipPath id="_clipPath_T6ewGrunuba9JNZIfWvBj3wnCDyEibV6"><rect x="654.874" y="411.693" width="40.002" height="32.614"/></clipPath></defs><g clip-path="url(#_clipPath_T6ewGrunuba9JNZIfWvBj3wnCDyEibV6)"><rect x="654.874" y="411.693" width="40.002" height="32.614" style="fill:rgb(0,108,223)" fill-opacity="0"/><g style="isolation:isolate"><path d=" M 674.875 417.2 C 663.59 417.2 655.434 427.153 655.094 427.575 C 654.813 427.929 654.8 428.426 655.062 428.794 C 655.367 429.22 662.625 439.2 674.875 439.2 C 687.125 439.2 694.387 429.22 694.688 428.794 C 694.949 428.43 694.938 427.927 694.656 427.575 C 694.316 427.153 686.16 417.2 674.875 417.2 Z  M 674.875 419.2 C 679.848 419.2 683.875 423.227 683.875 428.2 C 683.875 433.173 679.848 437.2 674.875 437.2 C 669.902 437.2 665.875 433.173 665.875 428.2 C 665.875 423.227 669.902 419.2 674.875 419.2 Z  M 674.875 423.2 C 672.114 423.2 669.875 425.439 669.875 428.2 C 669.875 430.961 672.114 433.2 674.875 433.2 C 677.636 433.2 679.875 430.961 679.875 428.2 C 679.872 427.59 679.756 426.986 679.531 426.419 C 679.146 427.01 678.486 427.363 677.781 427.356 C 677.233 427.36 676.706 427.144 676.319 426.756 C 675.931 426.369 675.715 425.842 675.719 425.294 C 675.719 424.559 676.082 423.914 676.656 423.544 C 676.089 423.32 675.485 423.203 674.875 423.2 Z " fill="rgb(0,0,0)"/><g><line x1="685.874" y1="440.8" x2="665.874" y2="415.2" vector-effect="non-scaling-stroke" stroke-width="5" stroke="rgb(235,235,235)" stroke-linejoin="miter" stroke-linecap="square" stroke-miterlimit="3"/><line x1="682.874" y1="440.8" x2="662.874" y2="415.2" vector-effect="non-scaling-stroke" stroke-width="5" stroke="rgb(0,0,0)" stroke-linejoin="miter" stroke-linecap="square" stroke-miterlimit="3"/></g></g></g></svg>