<?xml version="1.0" encoding="UTF-8" standalone="no"?><!-- Generator: Gravit.io --><svg xmlns="http://www.w3.org/2000/svg" xmlns:xlink="http://www.w3.org/1999/xlink" style="isolation:isolate" viewBox="650 389 40.002 22" width="40.002pt" height="22pt"><defs><clipPath id="_clipPath_BIRWntj5VrUMGoBiFf17o1ku1gA5fDD4"><rect x="650" y="389" width="40.002" height="22"/></clipPath></defs><g clip-path="url(#_clipPath_BIRWntj5VrUMGoBiFf17o1ku1gA5fDD4)"><rect x="650" y="389" width="40.002" height="22" style="fill:rgb(0,108,223)" fill-opacity="0"/><path d=" M 670.001 389 C 658.716 389 650.56 398.953 650.22 399.375 C 649.939 399.729 649.926 400.226 650.188 400.594 C 650.493 401.02 657.751 411 670.001 411 C 682.251 411 689.513 401.02 689.814 400.594 C 690.075 400.23 690.064 399.727 689.782 399.375 C 689.442 398.953 681.286 389 670.001 389 Z  M 670.001 391 C 674.974 391 679.001 395.027 679.001 400 C 679.001 404.973 674.974 409 670.001 409 C 665.028 409 661.001 404.973 661.001 400 C 661.001 395.027 665.028 391 670.001 391 Z  M 670.001 395 C 667.24 395 665.001 397.239 665.001 400 C 665.001 402.761 667.24 405 670.001 405 C 672.762 405 675.001 402.761 675.001 400 C 674.998 399.39 674.882 398.786 674.657 398.219 C 674.272 398.81 673.612 399.163 672.907 399.156 C 672.359 399.16 671.832 398.944 671.445 398.556 C 671.057 398.169 670.841 397.642 670.845 397.094 C 670.845 396.359 671.208 395.714 671.782 395.344 C 671.215 395.12 670.611 395.003 670.001 395 Z " fill="rgb(0,0,0)"/></g></svg>