<?xml version="1.0" encoding="UTF-8" standalone="no"?><!-- Generator: Gravit.io --><svg xmlns="http://www.w3.org/2000/svg" xmlns:xlink="http://www.w3.org/1999/xlink" style="isolation:isolate" viewBox="1100 400 58.933 40" width="58.933pt" height="40pt"><defs><clipPath id="_clipPath_5jgVxVOwOY2rkOQHgapCfXhea2ev8cj0"><rect x="1100" y="400" width="58.933" height="40"/></clipPath></defs><g clip-path="url(#_clipPath_5jgVxVOwOY2rkOQHgapCfXhea2ev8cj0)"><rect x="1100" y="400" width="58.933" height="40" style="fill:rgb(0,0,0)" fill-opacity="0"/><g><path d=" M 1141.333 424 C 1137.333 424 1134.133 425.067 1131.733 426.4 C 1135.467 429.6 1137.067 433.333 1137.333 433.6 L 1137.6 434.133 L 1137.6 440 L 1158.933 440 L 1158.933 434.667 C 1158.667 434.667 1154.4 424 1141.333 424 Z " fill="rgb(255,255,255)"/><circle vector-effect="non-scaling-stroke" cx="1141.3333333333333" cy="409.33333333333337" r="9.333333333333258" fill="rgb(255,255,255)"/><path d=" M 1108 409.333 C 1108 404.267 1112.267 400 1117.333 400 C 1122.4 400 1126.667 404.267 1126.667 409.333 C 1126.667 414.4 1122.4 418.667 1117.333 418.667 C 1112.267 418.667 1108 414.4 1108 409.333 Z  M 1117.333 424 C 1104.267 424 1100 434.667 1100 434.667 L 1100 440 L 1134.667 440 L 1134.667 434.667 C 1134.667 434.667 1130.4 424 1117.333 424 Z " fill="rgb(255,255,255)"/></g></g></svg>