<?xml version="1.0" encoding="UTF-8" standalone="no"?><!-- Generator: Gravit.io --><svg xmlns="http://www.w3.org/2000/svg" xmlns:xlink="http://www.w3.org/1999/xlink" style="isolation:isolate" viewBox="1110.419 498 38.095 50" width="38.095pt" height="50pt"><defs><clipPath id="_clipPath_G32znXH2OG4qDY25rntMkbkJhMdvmWgC"><rect x="1110.419" y="498" width="38.095" height="50"/></clipPath></defs><g clip-path="url(#_clipPath_G32znXH2OG4qDY25rntMkbkJhMdvmWgC)"><rect x="1110.419" y="498" width="38.095" height="50" style="fill:rgb(0,108,223)" fill-opacity="0"/><path d=" M 1129.467 502.762 C 1134.75 502.762 1138.99 507.002 1138.99 512.286 L 1138.99 514.667 L 1119.943 514.667 L 1119.943 512.286 C 1119.943 507.002 1124.174 502.762 1129.467 502.762 L 1129.467 502.762 Z  M 1129.467 498 C 1121.61 498 1115.181 504.429 1115.181 512.286 L 1115.181 514.667 C 1112.551 514.667 1110.419 516.799 1110.419 519.429 L 1110.419 543.238 C 1110.419 545.868 1112.551 548 1115.181 548 L 1143.752 548 C 1146.382 548 1148.514 545.868 1148.514 543.238 L 1148.514 519.429 C 1148.514 516.799 1146.382 514.667 1143.752 514.667 L 1143.752 512.286 C 1143.752 504.429 1137.324 498 1129.467 498 L 1129.467 498 Z  M 1124.169 530.5 C 1124.169 527.74 1126.409 525.5 1129.169 525.5 C 1131.929 525.5 1134.169 527.74 1134.169 530.5 C 1134.169 533.26 1131.929 535.5 1129.169 535.5 C 1126.409 535.5 1124.169 533.26 1124.169 530.5 Z " fill-rule="evenodd" fill="rgb(255,255,255)"/></g></svg>